<svg version="1.1" id="Layer_1" xmlns="http://www.w3.org/2000/svg" xmlns:xlink="http://www.w3.org/1999/xlink" x="0px" y="0px"
	 width="100%" viewBox="0 0 800 500" enable-background="new 0 0 800 500" xml:space="preserve">
<path fill="none" opacity="1.000000" stroke="#000000" stroke-linecap="round" stroke-linejoin="round" stroke-width="4.000000"
	d="
M558.000000,229.000000 
	C557.519104,218.365326 553.100708,210.151276 542.464783,207.123611 
	C531.696838,204.058350 520.780334,203.437439 510.491364,209.485291 
	C503.134735,213.809525 500.594055,220.461395 501.575043,228.490829 
	C502.395966,235.210205 506.373383,239.198166 512.943237,241.652039 
	C523.094666,245.443619 533.744202,247.236374 543.996216,250.511765 
	C550.912170,252.721298 557.114197,256.026917 559.451538,263.515137 
	C562.692810,273.899078 558.682312,282.333191 547.973328,287.444153 
	C540.728821,290.901611 533.232361,292.193542 524.959106,290.731567 
	C518.873840,289.656281 513.170654,288.579926 507.966492,285.049408 
	C501.496857,280.660400 499.159790,274.325836 498.494995,267.000458 
	C498.351532,265.419586 499.373108,263.230103 496.500000,263.000000 
"/>
<path fill="none" opacity="1.000000" stroke="#000000" stroke-linecap="round" stroke-linejoin="round" stroke-width="4.000000"
	d="
M481.000000,230.500000 
	C480.314270,225.930161 480.323853,221.197174 477.994110,217.003265 
	C474.174255,210.126923 467.603577,206.672012 460.468140,205.745285 
	C452.725067,204.739655 444.624786,204.132706 436.993866,207.486038 
	C425.288879,212.629684 422.135559,222.224487 425.592651,232.970200 
	C427.818115,239.887695 434.545654,241.574158 440.527344,243.410980 
	C449.254272,246.090790 458.182526,248.108765 466.993103,250.525146 
	C471.210358,251.681763 474.650970,254.121964 478.075958,256.906555 
	C485.910828,263.276459 484.202637,277.440369 477.038879,283.545624 
	C471.769958,288.036041 465.767853,289.618805 459.042023,290.749939 
	C451.816101,291.965179 445.173767,290.907196 438.516937,288.942566 
	C427.459747,285.679321 421.927124,277.964386 421.482086,266.500702 
	C421.452759,265.745361 421.166656,265.000000 420.999969,264.250000 
"/>
<path fill="none" opacity="1.000000" stroke="#000000" stroke-linecap="round" stroke-linejoin="round" stroke-width="4.000000"
	d="
M212.000000,267.000000 
	C215.112823,274.646362 219.169235,281.527557 226.489197,286.017609 
	C241.745346,295.375732 262.257629,292.495056 272.478394,276.486206 
	C276.741699,269.808594 278.491760,262.411407 279.730438,254.536240 
	C281.537811,243.045578 279.317932,232.493576 274.364563,222.567581 
	C268.371826,210.558838 257.921936,204.705933 244.501862,205.068771 
	C230.506790,205.447144 220.479736,212.267471 214.463409,224.982697 
	C213.542282,226.929489 213.042694,229.224136 211.000000,230.500000 
"/>
<path fill="none" opacity="1.000000" stroke="#000000" stroke-linecap="round" stroke-linejoin="round" stroke-width="4.000000"
	d="
M338.000000,247.000000 
	C340.777588,248.114304 343.672852,247.450562 346.500153,247.461548 
	C365.499847,247.535431 384.500793,247.409103 403.499329,247.575180 
	C407.390228,247.609192 409.004333,246.392532 408.509583,242.498779 
	C407.285217,232.862289 405.117462,223.636917 398.518707,215.983871 
	C385.398773,200.767700 356.829163,200.742752 344.503571,220.502228 
	C339.447052,228.608444 337.320953,237.230423 337.187561,246.995728 
	C337.059479,256.370819 337.977997,265.143127 342.039215,273.480896 
	C346.890015,283.439667 354.694061,288.954651 365.963745,290.730164 
	C374.427216,292.063568 382.027374,290.696228 389.471832,287.435699 
	C399.195709,283.176727 404.542572,275.269623 406.411865,264.983978 
	C406.599976,263.948975 407.587128,263.501526 407.500000,262.500000 
"/>
<path fill="none" opacity="1.000000" stroke="#000000" stroke-linecap="round" stroke-linejoin="round" stroke-width="4.000000"
	d="
M127.500000,173.500000 
	C102.332230,173.500000 77.164459,173.500000 51.500000,173.500000 
	C51.500000,181.993057 51.500000,189.996521 51.500000,198.000000 
	C51.500000,226.666672 51.495457,255.333328 51.503990,284.000000 
	C51.505623,289.471130 51.529434,289.493896 57.000000,289.496063 
	C80.333336,289.505341 103.667007,289.439362 126.999603,289.570953 
	C130.185608,289.588898 132.116135,288.650665 134.079468,286.060242 
	C143.905899,273.095367 154.000015,260.333344 164.000015,247.500015 
"/>
<path fill="none" opacity="1.000000" stroke="#000000" stroke-linecap="round" stroke-linejoin="round" stroke-width="18.000000"
	d="
M748.500000,214.000000 
	C740.676086,213.798798 733.985596,209.305862 726.480469,208.124130 
	C722.183899,207.447632 717.690674,208.531830 714.038635,211.055862 
	C705.913330,216.671494 706.009644,229.112885 713.995728,235.505310 
	C718.631836,239.216217 724.068848,241.296951 729.469727,243.571899 
	C735.282837,246.020569 741.119080,248.999771 743.913635,255.039948 
	C748.133484,264.160706 743.483154,272.380310 736.523254,275.551056 
	C728.172607,279.355408 719.594360,279.437714 712.163208,274.741699 
	C706.512390,271.170685 700.513245,270.182251 694.500000,268.500000 
"/>
<path fill="none" opacity="1.000000" stroke="#000000" stroke-linecap="round" stroke-linejoin="round" stroke-width="18.000000"
	d="
M676.500000,209.500000 
	C676.500000,226.166672 676.483276,242.833359 676.508057,259.500000 
	C676.518250,266.321625 675.058960,272.630829 668.456604,275.912689 
	C661.390076,279.425232 653.941406,279.117249 647.609253,274.354736 
	C643.791260,271.483215 639.277893,272.499603 635.500000,270.500000 
"/>
<path fill="none" opacity="1.000000" stroke="#000000" stroke-linecap="round" stroke-linejoin="round" stroke-width="5.000000"
	d="
M53.000000,229.000000 
	C76.000000,229.000000 99.000000,229.000000 122.000000,229.000000 
"/>
<path fill="none" opacity="1.000000" stroke="#000000" stroke-linecap="round" stroke-linejoin="round" stroke-width="4.000000"
	d="
M298.500000,206.500000 
	C298.500000,234.166672 298.500000,261.833344 298.500000,289.500000 
"/>
<path fill="none" opacity="1.000000" stroke="#000000" stroke-linecap="round" stroke-linejoin="round" stroke-width="4.000000"
	d="
M209.500000,206.500000 
	C209.500000,243.833328 209.500000,281.166656 209.500000,318.500000 
"/>
<path fill="none" opacity="1.000000" stroke="#000000" stroke-linecap="round" stroke-linejoin="round" stroke-width="3.000000"
	d="
M164.999985,247.500000 
	C174.833328,260.166687 184.693558,272.812653 194.470154,285.522949 
	C195.890762,287.369873 197.158234,289.250092 199.500000,290.000000 
"/>
<path fill="none" opacity="1.000000" stroke="#000000" stroke-linecap="round" stroke-linejoin="round" stroke-width="3.000000"
	d="
M196.500000,206.000000 
	C190.759415,209.986389 187.792282,216.304901 183.549667,221.540237 
	C177.192032,229.385483 171.166656,237.499985 164.999985,245.499985 
"/>
<path fill="none" opacity="1.000000" stroke="#000000" stroke-linecap="round" stroke-linejoin="round" stroke-width="3.000000"
	d="
M132.500000,206.000000 
	C135.686111,206.813889 136.766556,209.830139 138.434418,212.049286 
	C146.866837,223.268768 154.789520,234.874146 164.000000,245.500000 
"/>
<path fill="none" opacity="1.000000" stroke="#000000" stroke-linecap="round" stroke-linejoin="round" stroke-width="3.000000"
	d="
M332.000000,205.000000 
	C327.472260,205.683548 322.813324,205.561615 318.493073,207.484421 
	C311.320343,210.676758 306.290833,215.929245 302.963409,222.982742 
	C302.102417,224.807861 302.586487,227.677216 299.500000,228.000000 
"/>
<path fill="none" opacity="1.000000" stroke="#000000" stroke-linecap="round" stroke-linejoin="round" stroke-width="3.000000"
	d="
M708.000061,260.500000 
	C707.500061,263.833344 707.000061,267.166687 706.500061,270.500000 
"/>
<path fill="none" opacity="1.000000" stroke="#000000" stroke-linecap="round" stroke-linejoin="round" stroke-width="3.000000"
	d="
M737.000000,213.000000 
	C736.500000,216.166672 736.000000,219.333328 735.500000,222.500000 
"/>
<path fill="none" opacity="1.000000" stroke="#000000" stroke-linecap="round" stroke-linejoin="round" stroke-width="4.000000"
	d="
M647.500000,263.500000 
	C645.932739,266.121429 646.207764,269.176331 645.500000,272.000000 
"/>
</svg>