<svg version="1.1" id="Layer_1" xmlns="http://www.w3.org/2000/svg" xmlns:xlink="http://www.w3.org/1999/xlink" x="0px" y="0px"
	 width="100%" viewBox="0 0 280 280" enable-background="new 0 0 280 280" xml:space="preserve">
<path fill="#8611FA" opacity="1.000000" stroke="none" 
	d="
M115.000000,1.000001 
	C131.687561,1.000000 148.375122,1.000000 165.522446,1.380137 
	C163.615936,6.048709 161.000137,10.220969 158.937775,14.650887 
	C155.186508,22.708553 147.174316,27.692122 144.651184,36.938995 
	C141.442673,48.697662 132.345261,54.295681 120.161530,55.140644 
	C117.061249,55.355663 114.052948,56.896755 110.538208,57.898773 
	C99.925079,57.978149 89.767548,57.738342 79.630325,58.087749 
	C73.326790,58.305012 67.079979,59.465988 63.377460,66.032036 
	C60.814045,68.137833 58.078934,69.870323 56.466358,72.336739 
	C51.446507,80.014503 51.385155,88.935684 51.013279,97.700417 
	C50.589191,107.695831 49.290035,117.513321 44.657604,126.537094 
	C43.100567,129.570145 40.899879,132.272751 38.737213,135.294373 
	C37.700012,136.307083 36.918980,137.151810 35.775352,138.040527 
	C30.128603,141.799988 27.698599,148.185684 30.389593,153.411026 
	C32.358238,157.233704 35.423599,160.491592 38.033184,164.396530 
	C38.913540,168.237610 39.022644,170.880173 35.946518,174.083237 
	C32.855774,177.301529 31.796228,182.447205 29.755848,186.704788 
	C28.066545,190.229797 27.021938,195.729034 24.321196,196.758652 
	C18.634575,198.926590 18.702505,203.106964 18.162693,207.293823 
	C17.719721,210.729584 16.295357,213.239029 12.966191,213.626373 
	C8.392200,214.158569 8.714077,217.155441 7.750664,220.501511 
	C6.382069,225.254837 3.331751,229.523972 0.999997,234.000000 
	C1.000000,215.645767 1.000000,197.291550 1.343289,178.382233 
	C5.818918,176.422058 8.956580,174.058319 10.347458,169.647476 
	C10.776096,168.288162 11.755634,166.789108 12.922556,166.028580 
	C19.014931,162.057877 20.073334,155.200531 22.835430,149.325333 
	C24.590258,145.592682 25.630760,141.330597 28.095341,138.165344 
	C33.295235,131.487137 38.573978,125.048195 41.089146,116.707085 
	C42.000748,113.683907 44.995846,111.244995 45.729897,108.221367 
	C47.294861,101.775116 47.460735,94.972488 49.206600,88.591324 
	C51.153393,81.475769 53.193508,74.024712 57.043011,67.878357 
	C62.352219,59.401356 71.536140,55.573784 81.066139,53.034538 
	C82.626579,52.618763 84.974670,52.200100 85.440384,51.125034 
	C88.053780,45.092236 91.392296,39.744267 95.724228,34.679375 
	C99.910454,29.784822 102.809807,23.749281 106.018211,18.070177 
	C109.179413,12.474618 112.019196,6.697474 115.000000,1.000001 
z"/>
<path fill="#6B10F3" opacity="1.000000" stroke="none" 
	d="
M235.000000,281.000000 
	C221.312439,281.000000 207.624878,281.000000 193.470978,280.600037 
	C193.478226,278.311798 193.327118,275.513794 194.530106,274.687683 
	C200.807938,270.376648 202.506699,263.118866 206.477341,257.360809 
	C208.907318,253.836945 211.717636,250.555878 213.928299,246.906021 
	C215.912292,243.630356 214.443283,241.613403 210.745743,241.087555 
	C208.491486,240.766983 206.248596,240.366455 204.310333,239.802353 
	C217.938858,236.639725 227.294281,229.404556 229.737488,215.354965 
	C230.670090,209.992157 230.610092,204.456757 231.327881,199.171234 
	C232.100357,200.527374 232.451767,201.760178 233.015961,202.886398 
	C233.957336,204.765533 235.034836,206.576477 236.055054,208.416138 
	C237.644150,206.940216 239.604630,205.699081 240.725113,203.926865 
	C242.026108,201.869125 242.168335,199.050858 243.547775,197.075439 
	C249.272552,188.877304 255.569702,181.068481 261.091553,172.741959 
	C266.654144,164.354004 271.477417,155.478653 276.797455,146.924316 
	C277.774780,145.352829 279.578003,144.294952 281.000000,143.000000 
	C281.000000,165.354233 281.000000,187.708450 280.612915,210.541290 
	C278.524536,212.288467 276.279846,213.215744 275.227295,214.891739 
	C272.440918,219.328598 273.544189,226.282883 266.499084,227.996506 
	C265.948883,228.130341 265.508789,229.301422 265.275940,230.068832 
	C261.056244,243.975662 249.907486,253.884644 244.057556,266.848877 
	C243.874252,267.255096 243.199997,267.420776 242.955383,267.821228 
	C240.280533,272.200043 237.645691,276.603363 235.000000,281.000000 
z"/>
<path fill="#8912FC" opacity="1.000000" stroke="none" 
	d="
M114.531342,1.000001 
	C112.019196,6.697474 109.179413,12.474618 106.018211,18.070177 
	C102.809807,23.749281 99.910454,29.784822 95.724228,34.679375 
	C91.392296,39.744267 88.053780,45.092236 85.440384,51.125034 
	C84.974670,52.200100 82.626579,52.618763 81.066139,53.034538 
	C71.536140,55.573784 62.352219,59.401356 57.043011,67.878357 
	C53.193508,74.024712 51.153393,81.475769 49.206600,88.591324 
	C47.460735,94.972488 47.294861,101.775116 45.729897,108.221367 
	C44.995846,111.244995 42.000748,113.683907 41.089146,116.707085 
	C38.573978,125.048195 33.295235,131.487137 28.095341,138.165344 
	C25.630760,141.330597 24.590258,145.592682 22.835430,149.325333 
	C20.073334,155.200531 19.014931,162.057877 12.922556,166.028580 
	C11.755634,166.789108 10.776096,168.288162 10.347458,169.647476 
	C8.956580,174.058319 5.818918,176.422058 1.343289,177.913574 
	C1.000000,162.645767 1.000000,147.291550 1.329593,131.380524 
	C3.866746,127.840782 6.169358,124.922531 8.255305,121.856857 
	C10.369048,118.750336 12.275212,115.502190 14.260103,112.308495 
	C16.213005,109.166267 18.277473,106.084435 20.060362,102.847954 
	C21.961662,99.396530 22.684814,94.237190 25.527504,92.584526 
	C31.375643,89.184593 32.267742,84.162689 33.432861,78.617393 
	C34.340660,74.296791 35.627575,69.806602 41.961708,72.428345 
	C42.811878,69.047707 43.154797,65.870949 44.427975,63.125599 
	C45.730610,60.316738 47.482700,57.336880 49.859226,55.486633 
	C54.420990,51.935078 57.292725,47.899334 57.246330,41.975246 
	C57.239212,41.065407 57.771229,39.927811 58.429054,39.271664 
	C63.690063,34.024067 67.560715,27.922913 70.793747,21.231730 
	C72.390556,17.926924 75.628311,15.456820 77.681923,12.319902 
	C80.042892,8.713508 81.915359,4.787300 84.000000,1.000000 
	C94.020897,1.000000 104.041786,1.000000 114.531342,1.000001 
z"/>
<path fill="#7F11F9" opacity="1.000000" stroke="none" 
	d="
M111.002380,57.828545 
	C114.052948,56.896755 117.061249,55.355663 120.161530,55.140644 
	C132.345261,54.295681 141.442673,48.697662 144.651184,36.938995 
	C147.174316,27.692122 155.186508,22.708553 158.937775,14.650887 
	C161.000137,10.220969 163.615936,6.048709 165.991104,1.380137 
	C186.354233,1.000000 206.708450,1.000000 227.455460,1.350174 
	C225.566437,5.923558 223.436264,10.237611 220.971832,14.351410 
	C215.538513,23.421038 209.959641,32.403923 204.395706,41.394684 
	C200.508102,47.676655 196.154068,53.264935 188.079834,54.576057 
	C184.635086,55.135429 181.355972,56.714771 177.537598,57.901539 
	C155.049850,57.924488 133.026123,57.876514 111.002380,57.828545 
z"/>
<path fill="#7510F6" opacity="1.000000" stroke="none" 
	d="
M274.000000,1.000002 
	C276.319061,1.000000 278.638123,1.000000 281.000000,1.000000 
	C281.000000,22.354210 281.000000,43.708447 280.621826,65.540794 
	C278.927673,66.582771 276.975677,66.781914 276.406769,67.774139 
	C274.042603,71.897415 272.103394,76.263741 269.991791,80.532715 
	C269.058838,82.418839 268.571777,85.008232 267.045959,86.032661 
	C261.240784,89.930267 258.869476,95.849480 256.494110,101.902328 
	C255.966278,103.247292 255.302017,105.190025 254.242538,105.565674 
	C248.775650,107.504021 248.083176,112.177704 246.571243,116.803146 
	C245.710312,119.437004 243.003021,121.467346 241.127167,123.769440 
	C239.221085,121.714516 237.113571,119.804749 235.487473,117.548073 
	C234.570480,116.275467 234.406540,114.442276 233.972672,112.842812 
	C232.631882,107.899902 231.324356,102.947968 229.999054,97.569122 
	C229.613022,93.017700 229.533539,88.840118 228.773834,84.790115 
	C227.839066,79.806824 227.145050,74.469948 221.395844,71.726685 
	C219.076920,68.323067 216.940048,65.193802 215.216934,62.054420 
	C218.940445,63.363968 222.389130,64.419373 225.525635,66.068504 
	C229.680771,68.253212 232.987213,68.325905 235.747818,63.978580 
	C239.003021,58.852394 242.667358,53.977402 245.767899,48.763702 
	C250.060944,41.544739 253.841980,34.021740 258.119690,26.793116 
	C263.260895,18.105328 268.693542,9.590000 274.000000,1.000002 
z"/>
<path fill="#7010F4" opacity="1.000000" stroke="none" 
	d="
M230.003937,97.999535 
	C231.324356,102.947968 232.631882,107.899902 233.972672,112.842812 
	C234.406540,114.442276 234.570480,116.275467 235.487473,117.548073 
	C237.113571,119.804749 239.221085,121.714516 241.127167,123.769440 
	C243.003021,121.467346 245.710312,119.437004 246.571243,116.803146 
	C248.083176,112.177704 248.775650,107.504021 254.242538,105.565674 
	C255.302017,105.190025 255.966278,103.247292 256.494110,101.902328 
	C258.869476,95.849480 261.240784,89.930267 267.045959,86.032661 
	C268.571777,85.008232 269.058838,82.418839 269.991791,80.532715 
	C272.103394,76.263741 274.042603,71.897415 276.406769,67.774139 
	C276.975677,66.781914 278.927673,66.582771 280.621826,66.009453 
	C281.000000,91.354225 281.000000,116.708458 281.000000,142.531342 
	C279.578003,144.294952 277.774780,145.352829 276.797455,146.924316 
	C271.477417,155.478653 266.654144,164.354004 261.091553,172.741959 
	C255.569702,181.068481 249.272552,188.877304 243.547775,197.075439 
	C242.168335,199.050858 242.026108,201.869125 240.725113,203.926865 
	C239.604630,205.699081 237.644150,206.940216 236.055054,208.416138 
	C235.034836,206.576477 233.957336,204.765533 233.015961,202.886398 
	C232.451767,201.760178 232.100357,200.527374 231.364410,198.753510 
	C231.385071,195.032166 231.642120,191.893555 232.013855,188.768570 
	C233.219269,178.635330 234.194382,168.436646 244.145233,162.214737 
	C246.063080,161.015579 247.619308,159.089462 249.033173,157.259796 
	C253.944855,150.903641 252.382187,142.171936 245.766388,138.651489 
	C243.078186,136.602127 240.510040,134.897049 237.883087,132.824661 
	C236.093338,128.356064 233.647690,124.397934 232.791046,120.121498 
	C231.335083,112.853058 230.879761,105.384186 230.003937,97.999535 
z"/>
<path fill="#7910F7" opacity="1.000000" stroke="none" 
	d="
M273.531342,1.000002 
	C268.693542,9.590000 263.260895,18.105328 258.119690,26.793116 
	C253.841980,34.021740 250.060944,41.544739 245.767899,48.763702 
	C242.667358,53.977402 239.003021,58.852394 235.747818,63.978580 
	C232.987213,68.325905 229.680771,68.253212 225.525635,66.068504 
	C222.389130,64.419373 218.940445,63.363968 214.897110,61.905434 
	C208.802216,58.844517 203.176971,57.176460 196.531342,58.086166 
	C190.045563,57.956543 184.023590,57.893581 178.001602,57.830620 
	C181.355972,56.714771 184.635086,55.135429 188.079834,54.576057 
	C196.154068,53.264935 200.508102,47.676655 204.395706,41.394684 
	C209.959641,32.403923 215.538513,23.421038 220.971832,14.351410 
	C223.436264,10.237611 225.566437,5.923558 227.924118,1.350174 
	C243.020889,1.000000 258.041779,1.000000 273.531342,1.000002 
z"/>
<path fill="#8C12FD" opacity="1.000000" stroke="none" 
	d="
M83.531349,1.000000 
	C81.915359,4.787300 80.042892,8.713508 77.681923,12.319902 
	C75.628311,15.456820 72.390556,17.926924 70.793747,21.231730 
	C67.560715,27.922913 63.690063,34.024067 58.429054,39.271664 
	C57.771229,39.927811 57.239212,41.065407 57.246330,41.975246 
	C57.292725,47.899334 54.420990,51.935078 49.859226,55.486633 
	C47.482700,57.336880 45.730610,60.316738 44.427975,63.125599 
	C43.154797,65.870949 42.811878,69.047707 41.961708,72.428345 
	C35.627575,69.806602 34.340660,74.296791 33.432861,78.617393 
	C32.267742,84.162689 31.375643,89.184593 25.527504,92.584526 
	C22.684814,94.237190 21.961662,99.396530 20.060362,102.847954 
	C18.277473,106.084435 16.213005,109.166267 14.260103,112.308495 
	C12.275212,115.502190 10.369048,118.750336 8.255305,121.856857 
	C6.169358,124.922531 3.866746,127.840782 1.329593,130.911865 
	C1.000000,117.645775 1.000000,104.291542 1.330228,90.380089 
	C8.886672,79.609352 16.396744,69.582108 23.256538,59.128162 
	C29.677507,49.342949 35.341980,39.064171 41.470856,29.083345 
	C44.925625,23.457277 48.792065,18.082170 52.194233,12.426290 
	C54.390770,8.774694 56.082207,4.819267 58.000000,1.000000 
	C66.354233,1.000000 74.708466,1.000000 83.531349,1.000000 
z"/>
<path fill="#7F11F8" opacity="1.000000" stroke="none" 
	d="
M57.000000,281.000000 
	C39.979103,281.000000 22.958210,281.000000 5.548554,280.638550 
	C7.748210,275.556000 10.270038,270.796448 12.959962,266.133911 
	C13.944834,264.426788 15.918486,263.118896 16.429243,261.338623 
	C18.825758,252.985397 25.588852,247.494980 29.733772,240.322617 
	C32.647022,235.281525 35.329082,230.107376 38.189766,225.035156 
	C39.532310,222.654739 40.528851,219.496902 42.613888,218.252594 
	C45.823036,216.337463 46.838791,214.107208 47.062962,210.662308 
	C47.511986,203.761902 48.331936,196.885635 49.203453,190.340546 
	C49.940498,196.236099 50.126648,201.853073 51.115582,207.324966 
	C51.895908,211.642578 53.664127,215.781631 55.071049,220.350662 
	C57.432465,224.468765 59.716427,228.236221 62.084206,232.336334 
	C65.735054,235.531799 69.194771,238.542969 72.896385,241.219650 
	C77.488518,244.540283 77.952614,247.403458 74.488853,251.982513 
	C70.400986,257.386658 66.147591,262.707397 62.570229,268.441284 
	C60.169983,272.288422 58.819935,276.790802 57.000000,281.000000 
z"/>
<path fill="#8F12FD" opacity="1.000000" stroke="none" 
	d="
M57.531342,1.000000 
	C56.082207,4.819267 54.390770,8.774694 52.194233,12.426290 
	C48.792065,18.082170 44.925625,23.457277 41.470856,29.083345 
	C35.341980,39.064171 29.677507,49.342949 23.256538,59.128162 
	C16.396744,69.582108 8.886672,79.609352 1.330228,89.911430 
	C1.000000,60.422493 1.000000,30.844986 1.000000,1.000000 
	C19.686710,1.000000 38.374699,1.000000 57.531342,1.000000 
z"/>
<path fill="#8311FA" opacity="1.000000" stroke="none" 
	d="
M48.998756,189.999405 
	C48.331936,196.885635 47.511986,203.761902 47.062962,210.662308 
	C46.838791,214.107208 45.823036,216.337463 42.613888,218.252594 
	C40.528851,219.496902 39.532310,222.654739 38.189766,225.035156 
	C35.329082,230.107376 32.647022,235.281525 29.733772,240.322617 
	C25.588852,247.494980 18.825758,252.985397 16.429243,261.338623 
	C15.918486,263.118896 13.944834,264.426788 12.959962,266.133911 
	C10.270038,270.796448 7.748210,275.556000 5.079897,280.638550 
	C3.678213,281.000000 2.356426,281.000000 1.000000,281.000000 
	C1.000000,265.645782 1.000000,250.291550 0.999997,234.468658 
	C3.331751,229.523972 6.382069,225.254837 7.750664,220.501511 
	C8.714077,217.155441 8.392200,214.158569 12.966191,213.626373 
	C16.295357,213.239029 17.719721,210.729584 18.162693,207.293823 
	C18.702505,203.106964 18.634575,198.926590 24.321196,196.758652 
	C27.021938,195.729034 28.066545,190.229797 29.755848,186.704788 
	C31.796228,182.447205 32.855774,177.301529 35.946518,174.083237 
	C39.022644,170.880173 38.913540,168.237610 38.315178,164.575836 
	C47.323917,170.756882 47.598423,180.607239 48.998756,189.999405 
z"/>
<path fill="#7010F4" opacity="1.000000" stroke="none" 
	d="
M204.000610,240.001831 
	C206.248596,240.366455 208.491486,240.766983 210.745743,241.087555 
	C214.443283,241.613403 215.912292,243.630356 213.928299,246.906021 
	C211.717636,250.555878 208.907318,253.836945 206.477341,257.360809 
	C202.506699,263.118866 200.807938,270.376648 194.530106,274.687683 
	C193.327118,275.513794 193.478226,278.311798 193.002319,280.600037 
	C176.979111,281.000000 160.958206,281.000000 144.544861,280.653503 
	C145.708542,278.014771 147.422791,275.812592 148.788712,273.412170 
	C151.885727,267.969574 154.786499,262.415619 157.837479,256.946198 
	C158.220703,256.259186 158.968002,255.719040 159.648865,255.263748 
	C163.311615,252.814545 165.723282,248.953644 164.183563,245.199402 
	C163.394180,243.274704 158.556488,242.988846 155.533707,242.007523 
	C152.364548,240.978683 149.177826,240.003891 146.466187,239.003876 
	C156.289352,239.333206 165.645126,239.664169 175.469513,239.995895 
	C185.292282,239.998383 194.646439,240.000107 204.000610,240.001831 
z"/>
<path fill="#7510F6" opacity="1.000000" stroke="none" 
	d="
M145.998779,239.005493 
	C149.177826,240.003891 152.364548,240.978683 155.533707,242.007523 
	C158.556488,242.988846 163.394180,243.274704 164.183563,245.199402 
	C165.723282,248.953644 163.311615,252.814545 159.648865,255.263748 
	C158.968002,255.719040 158.220703,256.259186 157.837479,256.946198 
	C154.786499,262.415619 151.885727,267.969574 148.788712,273.412170 
	C147.422791,275.812592 145.708542,278.014771 144.076202,280.653503 
	C129.645767,281.000000 115.291542,281.000000 100.498489,280.637482 
	C101.901695,277.165131 103.675446,274.012360 105.598923,270.953735 
	C110.849373,262.604645 116.162994,254.295303 122.010429,245.090546 
	C117.815872,243.984329 114.234283,242.946335 110.606262,242.109726 
	C107.095306,241.300125 103.536568,240.697754 100.351730,239.796341 
	C105.136307,239.059479 109.567970,238.530655 114.418816,238.038956 
	C125.224922,238.385880 135.611847,238.695694 145.998779,239.005493 
z"/>
<path fill="#7910F7" opacity="1.000000" stroke="none" 
	d="
M99.998810,240.004379 
	C103.536568,240.697754 107.095306,241.300125 110.606262,242.109726 
	C114.234283,242.946335 117.815872,243.984329 122.010429,245.090546 
	C116.162994,254.295303 110.849373,262.604645 105.598923,270.953735 
	C103.675446,274.012360 101.901695,277.165131 100.029831,280.637482 
	C85.979103,281.000000 71.958214,281.000000 57.468658,281.000000 
	C58.819935,276.790802 60.169983,272.288422 62.570229,268.441284 
	C66.147591,262.707397 70.400986,257.386658 74.488853,251.982513 
	C77.952614,247.403458 77.488518,244.540283 72.896385,241.219650 
	C69.194771,238.542969 65.735054,235.531799 62.422005,232.420135 
	C68.154289,234.410980 73.457802,237.532608 79.156174,238.662079 
	C85.926422,240.004013 93.036171,239.633072 99.998810,240.004379 
z"/>
<path fill="#670FF2" opacity="1.000000" stroke="none" 
	d="
M235.468658,281.000000 
	C237.645691,276.603363 240.280533,272.200043 242.955383,267.821228 
	C243.199997,267.420776 243.874252,267.255096 244.057556,266.848877 
	C249.907486,253.884644 261.056244,243.975662 265.275940,230.068832 
	C265.508789,229.301422 265.948883,228.130341 266.499084,227.996506 
	C273.544189,226.282883 272.440918,219.328598 275.227295,214.891739 
	C276.279846,213.215744 278.524536,212.288467 280.612915,211.009949 
	C281.000000,234.244980 281.000000,257.489960 281.000000,281.000000 
	C265.980133,281.000000 250.958725,281.000000 235.468658,281.000000 
z"/>
<path fill="#FDFBFF" opacity="1.000000" stroke="none" 
	d="
M177.537598,57.901535 
	C184.023590,57.893581 190.045563,57.956543 196.397369,58.397507 
	C195.069077,59.788933 193.524460,61.116962 191.733810,61.763062 
	C182.402191,65.130104 173.010239,68.330177 163.634811,71.575485 
	C156.629623,74.000343 149.625259,76.427986 142.606445,78.812935 
	C136.499588,80.888000 130.293411,82.699799 124.286949,85.029655 
	C121.024940,86.294952 118.087875,88.397957 114.567123,90.235367 
	C112.833046,90.373100 111.505569,90.590256 110.244621,90.389496 
	C105.777740,89.678314 103.442261,91.199242 103.559952,96.001312 
	C96.848251,97.931450 90.463776,99.649719 84.247108,101.843544 
	C77.744926,104.138138 71.327713,106.717911 65.025558,109.515823 
	C61.963512,110.875267 59.248669,113.016739 56.453491,114.398209 
	C57.610615,101.337341 58.690891,88.682442 59.870087,75.655930 
	C61.219112,72.187714 62.469219,69.091103 63.719322,65.994499 
	C67.079979,59.465988 73.326790,58.305012 79.630325,58.087749 
	C89.767548,57.738342 99.925079,57.978149 110.538208,57.898773 
	C133.026123,57.876514 155.049850,57.924488 177.537598,57.901535 
z"/>
<path fill="#F9F4FE" opacity="1.000000" stroke="none" 
	d="
M56.376648,114.804184 
	C59.248669,113.016739 61.963512,110.875267 65.025558,109.515823 
	C71.327713,106.717911 77.744926,104.138138 84.247108,101.843544 
	C90.463776,99.649719 96.848251,97.931450 103.660011,96.334564 
	C104.257401,97.116890 104.353752,97.568787 104.364525,98.430069 
	C104.343597,100.227806 104.408249,101.616158 104.376801,103.463806 
	C104.180847,118.948463 104.081001,133.973831 103.624771,149.078278 
	C90.445557,153.845535 77.575348,158.410629 64.835648,163.314743 
	C61.916603,164.438416 59.446854,166.729263 56.534767,168.187927 
	C55.375061,165.255997 54.656559,162.523697 53.486351,160.000900 
	C50.540352,153.649780 46.363251,148.552765 38.689339,146.962692 
	C37.709541,146.799515 37.037453,146.783417 36.397842,146.332321 
	C36.332863,143.263733 36.235405,140.630142 36.137947,137.996552 
	C36.918980,137.151810 37.700012,136.307083 39.113605,135.330627 
	C42.842621,133.165710 45.939075,131.132523 49.339310,128.938385 
	C51.887608,124.119682 54.132130,119.461937 56.376648,114.804184 
z"/>
<path fill="#8211F4" opacity="1.000000" stroke="none" 
	d="
M35.775352,138.040527 
	C36.235405,140.630142 36.332863,143.263733 36.151474,146.641205 
	C33.425526,153.529358 38.193443,156.716492 41.209637,160.708206 
	C44.062088,164.483215 47.761353,168.135117 49.059784,172.451340 
	C51.224876,179.648544 52.043480,187.300644 52.926891,194.820206 
	C53.908901,203.179031 54.328911,211.603897 54.993591,220.000000 
	C53.664127,215.781631 51.895908,211.642578 51.115582,207.324966 
	C50.126648,201.853073 49.940498,196.236099 49.203453,190.340546 
	C47.598423,180.607239 47.323917,170.756882 38.282112,164.180527 
	C35.423599,160.491592 32.358238,157.233704 30.389593,153.411026 
	C27.698599,148.185684 30.128603,141.799988 35.775352,138.040527 
z"/>
<path fill="#8211F4" opacity="1.000000" stroke="none" 
	d="
M49.035522,129.099319 
	C45.939075,131.132523 42.842621,133.165710 39.369774,135.162659 
	C40.899879,132.272751 43.100567,129.570145 44.657604,126.537094 
	C49.290035,117.513321 50.589191,107.695831 51.013279,97.700417 
	C51.385155,88.935684 51.446507,80.014503 56.466358,72.336739 
	C58.078934,69.870323 60.814045,68.137833 63.377464,66.032036 
	C62.469219,69.091103 61.219112,72.187714 59.659309,75.912262 
	C57.901356,81.017731 55.857838,85.402306 55.140900,89.994003 
	C53.994160,97.338425 54.052757,104.867447 52.984486,112.228851 
	C52.158096,117.923439 50.386768,123.480896 49.035522,129.099319 
z"/>
<path fill="#6C10EB" opacity="1.000000" stroke="none" 
	d="
M204.310333,239.802353 
	C194.646439,240.000107 185.292282,239.998383 175.408661,239.684692 
	C174.585861,238.580551 174.292511,237.788391 174.356140,236.788651 
	C182.823380,236.386032 190.942154,236.361038 199.041779,235.954407 
	C210.033310,235.402618 218.758301,231.283569 223.808304,220.629868 
	C227.336304,213.187073 226.982361,205.487137 226.989868,197.716537 
	C227.005020,182.045120 230.201019,167.710068 243.221252,157.214905 
	C247.004395,154.165451 248.029083,150.173233 245.734818,145.212921 
	C245.721619,142.871216 245.804016,140.933487 245.886414,138.995743 
	C252.382187,142.171936 253.944855,150.903641 249.033173,157.259796 
	C247.619308,159.089462 246.063080,161.015579 244.145233,162.214737 
	C234.194382,168.436646 233.219269,178.635330 232.013855,188.768570 
	C231.642120,191.893555 231.385071,195.032166 231.038971,198.582275 
	C230.610092,204.456757 230.670090,209.992157 229.737488,215.354965 
	C227.294281,229.404556 217.938858,236.639725 204.310333,239.802353 
z"/>
<path fill="#FAF6FE" opacity="1.000000" stroke="none" 
	d="
M115.004242,90.123116 
	C118.087875,88.397957 121.024940,86.294952 124.286949,85.029655 
	C130.293411,82.699799 136.499588,80.888000 142.606445,78.812935 
	C149.625259,76.427986 156.629623,74.000343 163.634811,71.575485 
	C173.010239,68.330177 182.402191,65.130104 191.733810,61.763062 
	C193.524460,61.116962 195.069077,59.788933 196.861160,58.464165 
	C203.176971,57.176460 208.802216,58.844517 214.483337,61.915550 
	C216.940048,65.193802 219.076920,68.323067 221.433456,72.193359 
	C221.735153,77.288902 221.817184,81.643433 221.601944,85.864059 
	C219.015732,81.894478 216.370667,80.036911 212.274033,83.678627 
	C211.372726,84.479851 209.818146,84.550919 208.560455,84.945694 
	C202.037552,86.993172 194.978394,88.076691 189.131348,91.335609 
	C182.510590,95.025764 175.901505,96.334122 168.314102,96.061081 
	C160.301697,91.551643 151.964722,90.263344 143.212326,90.376778 
	C133.812317,90.498611 124.407158,90.224472 115.004242,90.123116 
z"/>
<path fill="#7514EB" opacity="1.000000" stroke="none" 
	d="
M221.899200,85.997963 
	C221.817184,81.643433 221.735153,77.288902 221.615509,72.467697 
	C227.145050,74.469948 227.839066,79.806824 228.773834,84.790115 
	C229.533539,88.840118 229.613022,93.017700 229.999054,97.569122 
	C230.879761,105.384186 231.335083,112.853058 232.791046,120.121498 
	C233.647690,124.397934 236.093338,128.356064 237.552383,132.746094 
	C235.319946,131.311737 233.359406,129.588669 231.264099,127.532120 
	C228.343628,118.093552 225.557953,108.988464 222.812607,99.425095 
	C222.535034,94.643860 222.217117,90.320915 221.899200,85.997963 
z"/>
<path fill="#F4EAFD" opacity="1.000000" stroke="none" 
	d="
M231.398880,127.865585 
	C233.359406,129.588669 235.319946,131.311737 237.611176,133.113373 
	C240.510040,134.897049 243.078186,136.602127 245.766373,138.651489 
	C245.804016,140.933487 245.721619,142.871216 245.521423,145.339111 
	C245.136551,146.086868 244.964600,146.363556 244.534729,146.703766 
	C243.102982,147.092316 242.024277,147.476486 240.587494,147.881638 
	C232.510818,151.099228 229.041977,157.673447 226.423584,164.679123 
	C224.583618,163.836609 222.851120,162.845413 221.259064,163.034790 
	C218.851151,163.321182 216.540909,164.429565 214.189453,165.189499 
	C207.646347,167.304169 201.083618,169.360535 194.567535,171.555420 
	C190.422318,172.951675 186.346436,174.553787 182.223419,175.663971 
	C182.710144,171.511902 183.212921,167.759445 183.768860,163.618256 
	C182.905624,155.231445 179.053009,148.953644 172.967026,143.981033 
	C176.298264,142.168945 179.166306,140.114212 182.362061,138.995895 
	C193.414932,135.128052 204.673569,131.835907 215.661942,127.801796 
	C220.283524,126.105095 224.385269,122.709389 228.977417,127.608673 
	C229.397644,128.056992 230.573761,127.796783 231.398880,127.865585 
z"/>
<path fill="#7A12ED" opacity="1.000000" stroke="none" 
	d="
M55.071045,220.350662 
	C54.328911,211.603897 53.908901,203.179031 52.926891,194.820206 
	C52.043480,187.300644 51.224876,179.648544 49.059784,172.451340 
	C47.761353,168.135117 44.062088,164.483215 41.209637,160.708206 
	C38.193443,156.716492 33.425526,153.529358 36.118996,147.076202 
	C37.037453,146.783417 37.709541,146.799515 38.690403,147.367767 
	C40.320602,150.973038 40.880333,154.829636 43.100697,156.934509 
	C50.995747,164.418900 54.375580,173.731171 56.192249,184.049652 
	C56.622505,186.493454 58.399673,188.700104 59.660568,191.471436 
	C59.776066,196.951569 59.788254,201.976120 59.492218,207.192719 
	C58.829067,209.265366 57.947762,211.221313 58.204536,213.014282 
	C59.886337,224.757690 68.606026,234.082718 82.097809,234.279221 
	C83.132561,234.699921 84.065689,234.850266 85.332306,235.000977 
	C86.110451,235.001694 86.555099,235.002060 87.325500,235.206879 
	C93.693283,235.941284 99.737953,236.443329 105.776161,237.013763 
	C108.523911,237.273361 111.258873,237.668289 113.999634,238.001831 
	C109.567970,238.530655 105.136307,239.059479 100.351730,239.796341 
	C93.036171,239.633072 85.926422,240.004013 79.156174,238.662079 
	C73.457802,237.532608 68.154289,234.410980 62.338188,232.087448 
	C59.716427,228.236221 57.432465,224.468765 55.071045,220.350662 
z"/>
<path fill="#7110EA" opacity="1.000000" stroke="none" 
	d="
M114.418816,238.038956 
	C111.258873,237.668289 108.523911,237.273361 105.776161,237.013763 
	C99.737953,236.443329 93.693283,235.941284 87.681992,234.998077 
	C99.475868,234.390320 111.238998,234.195770 123.388077,234.157333 
	C140.515717,235.207703 157.257431,236.101959 173.999146,236.996216 
	C174.292511,237.788391 174.585861,238.580551 174.940063,239.683929 
	C165.645126,239.664169 156.289352,239.333206 146.466187,239.003876 
	C135.611847,238.695694 125.224922,238.385880 114.418816,238.038956 
z"/>
<path fill="#751CD7" opacity="1.000000" stroke="none" 
	d="
M114.567123,90.235367 
	C124.407158,90.224472 133.812317,90.498611 143.212326,90.376778 
	C151.964722,90.263344 160.301697,91.551643 168.495529,96.354691 
	C172.735809,100.509590 176.817947,104.080177 176.815063,109.882126 
	C175.430710,109.036285 174.199997,108.421989 173.378784,107.458626 
	C167.319992,100.351097 159.404541,96.074707 150.357666,96.227554 
	C135.059235,96.486031 119.540527,92.526817 104.450104,98.020691 
	C104.353752,97.568787 104.257401,97.116890 104.060989,96.331726 
	C103.442261,91.199242 105.777740,89.678314 110.244621,90.389496 
	C111.505569,90.590256 112.833046,90.373100 114.567123,90.235367 
z"/>
<path fill="#851CED" opacity="1.000000" stroke="none" 
	d="
M49.339306,128.938385 
	C50.386768,123.480896 52.158096,117.923439 52.984486,112.228851 
	C54.052757,104.867447 53.994160,97.338425 55.140900,89.994003 
	C55.857838,85.402306 57.901356,81.017731 59.560387,76.283875 
	C58.690891,88.682442 57.610615,101.337341 56.453491,114.398216 
	C54.132130,119.461937 51.887608,124.119682 49.339306,128.938385 
z"/>
<path fill="#F5EDFD" opacity="1.000000" stroke="none" 
	d="
M59.800446,207.000656 
	C59.788254,201.976120 59.776066,196.951569 59.728271,191.068497 
	C59.114815,185.179123 58.536957,180.148300 57.927063,174.661743 
	C57.871708,173.902344 57.848385,173.598663 57.652733,173.037445 
	C57.243710,171.347595 57.007015,169.915268 56.770325,168.482956 
	C59.446854,166.729263 61.916603,164.438416 64.835648,163.314743 
	C77.575348,158.410629 90.445557,153.845535 103.721756,149.538300 
	C104.185989,163.523972 104.142189,177.129303 104.285782,190.732651 
	C104.301460,192.217270 105.396698,193.690506 105.819366,195.473373 
	C101.224564,197.503326 96.833809,199.317917 92.371063,200.933670 
	C85.681679,203.355606 79.059448,206.111847 72.183548,207.819504 
	C67.283760,209.036407 64.322090,211.063416 63.679474,216.059402 
	C62.169456,212.928528 60.984951,209.964600 59.800446,207.000656 
z"/>
<path fill="#7510E6" opacity="1.000000" stroke="none" 
	d="
M105.991196,195.169022 
	C105.396698,193.690506 104.301460,192.217270 104.285782,190.732651 
	C104.142189,177.129303 104.185989,163.523972 104.078148,149.459213 
	C104.081001,133.973831 104.180847,118.948463 104.712357,103.420059 
	C109.623344,101.340317 114.038689,98.688126 118.595688,98.417046 
	C127.331406,97.897385 136.148819,98.694466 144.930054,99.009125 
	C160.945114,99.583008 174.013611,105.705887 177.017242,124.440216 
	C175.760025,126.757217 174.516510,128.719849 173.227005,130.226837 
	C173.175186,128.779297 173.063675,127.774857 173.179596,126.797386 
	C174.658936,114.322525 167.792908,106.950111 157.923874,103.953339 
	C156.519287,103.526825 154.630249,104.695679 152.548523,105.082993 
	C149.033752,104.614128 145.945297,103.927895 142.836121,103.815819 
	C135.897491,103.565712 128.948532,103.602150 121.875298,103.216980 
	C120.476326,102.372543 119.173431,101.305443 117.940765,101.381187 
	C111.234360,101.793289 107.141006,105.915993 107.092491,112.665482 
	C107.053200,118.130966 107.826233,123.597267 107.954994,129.069885 
	C108.373505,146.856934 108.615166,164.648132 109.034515,182.435150 
	C109.132072,186.573090 109.663536,190.700821 109.597839,194.898727 
	C108.130623,195.032471 107.060913,195.100754 105.991196,195.169022 
z"/>
<path fill="#7010E3" opacity="1.000000" stroke="none" 
	d="
M177.030960,124.085854 
	C174.013611,105.705887 160.945114,99.583008 144.930054,99.009125 
	C136.148819,98.694466 127.331406,97.897385 118.595688,98.417046 
	C114.038689,98.688126 109.623344,101.340317 104.808456,102.960770 
	C104.408249,101.616158 104.343597,100.227806 104.364525,98.430069 
	C119.540527,92.526817 135.059235,96.486031 150.357666,96.227554 
	C159.404541,96.074707 167.319992,100.351097 173.378784,107.458626 
	C174.199997,108.421989 175.430710,109.036285 177.073700,109.986816 
	C177.996323,110.818222 178.317062,111.475029 178.616699,112.562119 
	C178.074066,116.690216 177.552505,120.388031 177.030960,124.085854 
z"/>
<path fill="#7413E4" opacity="1.000000" stroke="none" 
	d="
M57.959099,175.117462 
	C58.536957,180.148300 59.114815,185.179123 59.624969,190.612915 
	C58.399673,188.700104 56.622505,186.493454 56.192249,184.049652 
	C54.375580,173.731171 50.995747,164.418900 43.100697,156.934509 
	C40.880333,154.829636 40.320602,150.973038 38.998108,147.514832 
	C46.363251,148.552765 50.540352,153.649780 53.486351,160.000900 
	C54.656559,162.523697 55.375061,165.255997 56.534767,168.187927 
	C57.007015,169.915268 57.243710,171.347595 57.429375,173.250092 
	C57.571934,174.186005 57.765518,174.651733 57.959099,175.117462 
z"/>
<path fill="#6C12E5" opacity="1.000000" stroke="none" 
	d="
M174.356140,236.788651 
	C157.257431,236.101959 140.515717,235.207703 123.387909,233.824997 
	C123.001915,232.893478 123.002022,232.450394 123.463997,232.005737 
	C129.724060,232.335495 135.520660,232.915604 141.320740,232.952606 
	C160.457596,233.074707 179.598679,232.801300 198.732056,233.087448 
	C207.988831,233.225891 214.801788,229.119125 219.967010,222.141357 
	C221.984543,219.415848 224.703949,215.815872 221.132278,211.592331 
	C221.514923,205.771393 221.925781,200.356583 222.724518,194.829147 
	C223.778564,193.156998 224.822357,191.650772 225.051224,190.029526 
	C226.865479,177.178619 230.118881,165.209106 240.808273,156.327209 
	C243.190216,154.348038 243.580521,149.971909 244.887787,146.699371 
	C244.964600,146.363556 245.136551,146.086868 245.617004,145.743073 
	C248.029083,150.173233 247.004395,154.165451 243.221252,157.214905 
	C230.201019,167.710068 227.005020,182.045120 226.989868,197.716537 
	C226.982361,205.487137 227.336304,213.187073 223.808304,220.629868 
	C218.758301,231.283569 210.033310,235.402618 199.041779,235.954407 
	C190.942154,236.361038 182.823380,236.386032 174.356140,236.788651 
z"/>
<path fill="#F9F4FE" opacity="1.000000" stroke="none" 
	d="
M178.637787,112.131836 
	C178.317062,111.475029 177.996323,110.818222 177.416962,110.056732 
	C176.817947,104.080177 172.735809,100.509590 168.835938,96.421715 
	C175.901505,96.334122 182.510590,95.025764 189.131348,91.335609 
	C194.978394,88.076691 202.037552,86.993172 208.560455,84.945694 
	C209.818146,84.550919 211.372726,84.479851 212.274033,83.678627 
	C216.370667,80.036911 219.015732,81.894478 221.601959,85.864059 
	C222.217117,90.320915 222.535034,94.643860 222.395935,99.389862 
	C220.141830,99.770645 218.177780,99.230736 216.575134,99.768280 
	C207.358093,102.859772 198.254532,106.288300 189.051620,109.423851 
	C185.665833,110.577431 182.113922,111.243439 178.637787,112.131836 
z"/>
<path fill="#F6EFFE" opacity="1.000000" stroke="none" 
	d="
M178.616699,112.562119 
	C182.113922,111.243439 185.665833,110.577431 189.051620,109.423851 
	C198.254532,106.288300 207.358093,102.859772 216.575134,99.768280 
	C218.177780,99.230736 220.141830,99.770645 222.355621,99.848137 
	C225.557953,108.988464 228.343628,118.093552 231.264099,127.532112 
	C230.573761,127.796783 229.397644,128.056992 228.977417,127.608673 
	C224.385269,122.709389 220.283524,126.105095 215.661942,127.801796 
	C204.673569,131.835907 193.414932,135.128052 182.362061,138.995895 
	C179.166306,140.114212 176.298264,142.168945 172.692963,143.950790 
	C171.745300,144.046631 171.384659,143.986053 170.813873,143.652496 
	C169.094208,142.835632 167.584717,142.291718 165.833984,141.501587 
	C163.722504,140.503006 161.852234,139.750641 160.335953,139.006256 
	C161.792114,138.625168 162.894272,138.236099 164.344421,137.841583 
	C167.552612,135.451584 170.412811,133.067032 173.273010,130.682480 
	C174.516510,128.719849 175.760025,126.757217 177.017242,124.440216 
	C177.552505,120.388031 178.074066,116.690216 178.616699,112.562119 
z"/>
<path fill="#F1E5FC" opacity="1.000000" stroke="none" 
	d="
M222.336639,194.941772 
	C221.925781,200.356583 221.514923,205.771393 220.948730,211.876968 
	C219.194946,214.710632 217.596481,216.853531 215.666901,219.113861 
	C210.654816,220.973679 205.987015,224.186172 201.290817,224.228271 
	C159.862946,224.599564 118.430008,224.407349 76.633423,224.259354 
	C73.209450,223.074554 70.150620,222.012238 67.023422,220.633209 
	C65.971695,218.953110 64.988342,217.589722 64.004990,216.226334 
	C64.322090,211.063416 67.283760,209.036407 72.183548,207.819504 
	C79.059448,206.111847 85.681679,203.355606 92.371063,200.933670 
	C96.833809,199.317917 101.224564,197.503326 105.819366,195.473373 
	C107.060913,195.100754 108.130623,195.032471 110.060760,194.966751 
	C115.949875,194.924072 120.978554,194.878845 126.471436,194.898071 
	C135.623962,194.837906 144.312286,194.713287 153.399612,194.628632 
	C155.914917,194.363480 158.068680,194.216629 160.141205,193.726395 
	C170.251266,191.334991 178.388519,186.473251 181.955521,175.968399 
	C182.052628,175.992264 182.239471,176.063583 182.239471,176.063583 
	C186.346436,174.553787 190.422318,172.951675 194.567535,171.555420 
	C201.083618,169.360535 207.646347,167.304169 214.189453,165.189499 
	C216.540909,164.429565 218.851151,163.321182 221.259064,163.034790 
	C222.851120,162.845413 224.583618,163.836609 226.343994,164.971878 
	C226.301849,166.432083 226.168945,167.219681 225.823685,168.324936 
	C224.519775,177.408981 223.428207,186.175385 222.336639,194.941772 
z"/>
<path fill="#6910DB" opacity="1.000000" stroke="none" 
	d="
M222.724503,194.829147 
	C223.428207,186.175385 224.519775,177.408981 226.150238,168.233185 
	C231.072830,162.927017 235.588898,158.138458 239.744995,153.055557 
	C240.753922,151.821655 240.577148,149.618271 240.945587,147.860657 
	C242.024277,147.476486 243.102982,147.092316 244.534729,146.703766 
	C243.580521,149.971909 243.190216,154.348038 240.808273,156.327209 
	C230.118881,165.209106 226.865479,177.178619 225.051224,190.029526 
	C224.822357,191.650772 223.778564,193.156998 222.724503,194.829147 
z"/>
<path fill="#7010E3" opacity="1.000000" stroke="none" 
	d="
M166.075211,141.747818 
	C167.584717,142.291718 169.094208,142.835632 170.810913,144.060165 
	C171.511871,153.626953 178.538208,158.207733 183.715714,164.007004 
	C183.212921,167.759445 182.710144,171.511902 182.223419,175.663971 
	C182.239471,176.063583 182.052628,175.992264 181.640900,175.795197 
	C180.829758,174.736511 180.117645,173.888092 180.080521,173.011124 
	C179.790619,166.162231 176.788162,160.688812 171.736832,156.264069 
	C167.306519,152.383270 165.330444,147.613220 166.075211,141.747818 
z"/>
<path fill="#640FD2" opacity="1.000000" stroke="none" 
	d="
M240.587494,147.881653 
	C240.577148,149.618271 240.753922,151.821655 239.744995,153.055557 
	C235.588898,158.138458 231.072830,162.927017 226.362579,167.915527 
	C226.168945,167.219681 226.301849,166.432083 226.514343,165.351730 
	C229.041977,157.673447 232.510818,151.099228 240.587494,147.881653 
z"/>
<path fill="#6910DB" opacity="1.000000" stroke="none" 
	d="
M183.768860,163.618256 
	C178.538208,158.207733 171.511871,153.626953 171.021057,144.333130 
	C171.384659,143.986053 171.745300,144.046631 172.380005,144.137451 
	C179.053009,148.953644 182.905624,155.231445 183.768860,163.618256 
z"/>
<path fill="#7010E3" opacity="1.000000" stroke="none" 
	d="
M63.679474,216.059402 
	C64.988342,217.589722 65.971695,218.953110 66.865166,220.879578 
	C67.916054,223.107437 68.694557,225.569061 70.267166,226.284012 
	C74.575912,228.242889 79.149849,230.477264 83.742271,230.790070 
	C96.795959,231.679230 109.911156,231.665588 123.002136,232.007324 
	C123.002022,232.450394 123.001915,232.893478 123.001968,233.668884 
	C111.238998,234.195770 99.475868,234.390320 87.356247,234.793640 
	C86.555099,235.002060 86.110451,235.001694 85.071411,234.811203 
	C83.650085,234.417007 82.823128,234.212936 81.996170,234.008850 
	C68.606026,234.082718 59.886337,224.757690 58.204536,213.014282 
	C57.947762,211.221313 58.829067,209.265366 59.492218,207.192719 
	C60.984951,209.964600 62.169456,212.928528 63.679474,216.059402 
z"/>
<path fill="#7110EA" opacity="1.000000" stroke="none" 
	d="
M82.097809,234.279205 
	C82.823128,234.212936 83.650085,234.417007 84.737923,234.810852 
	C84.065689,234.850266 83.132561,234.699921 82.097809,234.279205 
z"/>
<path fill="#F9F4FE" opacity="1.000000" stroke="none" 
	d="
M57.927063,174.661743 
	C57.765518,174.651733 57.571934,174.186005 57.601707,173.507629 
	C57.848385,173.598663 57.871708,173.902344 57.927063,174.661743 
z"/>
<path fill="#F7F1FE" opacity="1.000000" stroke="none" 
	d="
M122.003784,103.521835 
	C128.948532,103.602150 135.897491,103.565712 142.836121,103.815819 
	C145.945297,103.927895 149.033752,104.614128 152.766815,105.336960 
	C160.938416,109.082619 162.719894,115.285400 161.399933,123.085846 
	C160.099731,125.539749 159.043701,127.763451 157.653046,130.100906 
	C151.572067,133.992416 145.217575,135.303284 138.412033,135.139267 
	C133.614029,135.023636 128.807953,135.242538 123.574966,135.219864 
	C122.441971,133.984818 121.216179,132.879425 121.131287,131.692429 
	C120.829781,127.476875 120.917267,123.233513 120.929749,118.539528 
	C121.335983,113.226196 121.669884,108.374023 122.003784,103.521835 
z"/>
<path fill="#7A12ED" opacity="1.000000" stroke="none" 
	d="
M121.875290,103.216980 
	C121.669884,108.374023 121.335983,113.226196 120.600250,118.692650 
	C116.082863,124.838074 117.358604,135.917923 122.736122,142.253952 
	C123.986450,143.727142 124.920197,145.469009 125.594101,147.194748 
	C122.259216,147.030807 120.683167,147.873276 120.948006,151.307770 
	C121.221054,154.848831 120.907578,158.435135 120.521332,162.155701 
	C119.660484,162.927124 118.720413,163.506805 118.659500,164.167526 
	C117.870941,172.720642 116.293999,181.398010 122.268105,189.006836 
	C123.686829,190.813782 124.769821,192.884323 126.007240,194.833618 
	C120.978554,194.878845 115.949875,194.924072 110.458267,194.901276 
	C109.663536,190.700821 109.132072,186.573090 109.034515,182.435150 
	C108.615166,164.648132 108.373505,146.856934 107.954994,129.069885 
	C107.826233,123.597267 107.053200,118.130966 107.092491,112.665482 
	C107.141006,105.915993 111.234360,101.793289 117.940765,101.381187 
	C119.173431,101.305443 120.476326,102.372543 121.875290,103.216980 
z"/>
<path fill="#7514EB" opacity="1.000000" stroke="none" 
	d="
M161.644104,122.855637 
	C162.719894,115.285400 160.938416,109.082619 153.183716,105.380135 
	C154.630249,104.695679 156.519287,103.526825 157.923874,103.953339 
	C167.792908,106.950111 174.658936,114.322525 173.179596,126.797386 
	C173.063675,127.774857 173.175186,128.779297 173.227005,130.226837 
	C170.412811,133.067032 167.552612,135.451584 164.344879,137.387329 
	C163.998032,135.113983 164.273773,133.236847 163.937347,131.476730 
	C163.380478,128.563354 162.429199,125.725380 161.644104,122.855637 
z"/>
<path fill="#6910DB" opacity="1.000000" stroke="none" 
	d="
M123.463997,232.005737 
	C109.911156,231.665588 96.795959,231.679230 83.742271,230.790070 
	C79.149849,230.477264 74.575912,228.242889 70.267166,226.284012 
	C68.694557,225.569061 67.916054,223.107437 66.933533,221.196289 
	C70.150620,222.012238 73.209450,223.074554 76.708099,224.601624 
	C79.462410,226.031479 81.709373,227.563492 84.104828,227.848816 
	C89.851517,228.533279 95.665085,228.856140 101.456711,228.930283 
	C133.990814,229.346817 166.525940,229.735306 199.061905,229.904236 
	C204.919037,229.934662 210.764648,228.680115 214.709183,223.644775 
	C215.624771,222.476013 215.593552,220.565582 215.998016,218.996414 
	C217.596481,216.853531 219.194946,214.710632 220.976959,212.283096 
	C224.703949,215.815872 221.984543,219.415848 219.967010,222.141357 
	C214.801788,229.119125 207.988831,233.225891 198.732056,233.087448 
	C179.598679,232.801300 160.457596,233.074707 141.320740,232.952606 
	C135.520660,232.915604 129.724060,232.335495 123.463997,232.005737 
z"/>
<path fill="#7514EB" opacity="1.000000" stroke="none" 
	d="
M165.833984,141.501587 
	C165.330444,147.613220 167.306519,152.383270 171.736832,156.264069 
	C176.788162,160.688812 179.790619,166.162231 180.080521,173.011124 
	C180.117645,173.888092 180.829758,174.736511 181.543793,175.771332 
	C178.388519,186.473251 170.251266,191.334991 160.141205,193.726395 
	C158.068680,194.216629 155.914917,194.363480 153.502197,194.323990 
	C155.092026,192.462234 156.834229,190.704391 158.891693,189.473450 
	C164.870926,185.896179 168.231049,180.643860 168.762451,173.833313 
	C168.909714,171.946045 167.408600,169.930145 166.631622,167.550507 
	C167.066574,156.908951 164.155777,152.048004 155.532150,149.279022 
	C152.432449,148.283768 149.144531,147.874695 146.133682,146.903656 
	C150.877213,144.072235 155.429581,141.535263 159.981949,138.998276 
	C161.852234,139.750641 163.722504,140.503006 165.833984,141.501587 
z"/>
<path fill="#7413E4" opacity="1.000000" stroke="none" 
	d="
M160.335953,139.006256 
	C155.429581,141.535263 150.877213,144.072235 145.674805,146.983170 
	C138.683044,147.267166 132.341339,147.177216 125.999619,147.087250 
	C124.920197,145.469009 123.986450,143.727142 122.736122,142.253952 
	C117.358604,135.917923 116.082863,124.838074 120.527916,119.153801 
	C120.917267,123.233513 120.829781,127.476875 121.131287,131.692429 
	C121.216179,132.879425 122.441971,133.984818 123.615372,135.564148 
	C125.166512,137.374313 125.979469,139.171600 127.372055,140.050186 
	C134.374847,144.468216 151.868530,141.668365 157.073807,135.208786 
	C158.044113,134.004669 157.716354,131.754547 157.987671,129.987152 
	C159.043701,127.763451 160.099731,125.539749 161.399933,123.085846 
	C162.429199,125.725380 163.380478,128.563354 163.937347,131.476730 
	C164.273773,133.236847 163.998032,135.113983 163.996887,137.392792 
	C162.894272,138.236099 161.792114,138.625168 160.335953,139.006256 
z"/>
<path fill="#640FD2" opacity="1.000000" stroke="none" 
	d="
M215.666901,219.113861 
	C215.593552,220.565582 215.624771,222.476013 214.709183,223.644775 
	C210.764648,228.680115 204.919037,229.934662 199.061905,229.904236 
	C166.525940,229.735306 133.990814,229.346817 101.456711,228.930283 
	C95.665085,228.856140 89.851517,228.533279 84.104828,227.848816 
	C81.709373,227.563492 79.462410,226.031479 77.073250,224.724091 
	C118.430008,224.407349 159.862946,224.599564 201.290817,224.228271 
	C205.987015,224.186172 210.654816,220.973679 215.666901,219.113861 
z"/>
<path fill="#7010E3" opacity="1.000000" stroke="none" 
	d="
M166.663742,167.973267 
	C167.408600,169.930145 168.909714,171.946045 168.762451,173.833313 
	C168.231049,180.643860 164.870926,185.896179 158.891693,189.473450 
	C156.834229,190.704391 155.092026,192.462234 153.103210,194.284027 
	C144.312286,194.713287 135.623962,194.837906 126.471436,194.898071 
	C124.769821,192.884323 123.686829,190.813782 122.268105,189.006836 
	C116.293999,181.398010 117.870941,172.720642 118.659500,164.167526 
	C118.720413,163.506805 119.660484,162.927124 120.589340,162.619904 
	C120.986740,169.163254 120.986740,175.396484 120.986740,181.592926 
	C122.712952,181.807983 123.854126,181.950150 125.029495,182.455994 
	C127.084000,184.468704 128.857025,186.862381 131.169891,187.630539 
	C138.850510,190.181427 146.627441,188.612259 154.144745,186.599152 
	C159.825287,185.077911 163.630966,181.299927 164.078018,174.617386 
	C165.001694,172.183151 165.832718,170.078201 166.663742,167.973267 
z"/>
<path fill="#6910DB" opacity="1.000000" stroke="none" 
	d="
M157.653030,130.100906 
	C157.716354,131.754547 158.044113,134.004669 157.073807,135.208786 
	C151.868530,141.668365 134.374847,144.468216 127.372055,140.050186 
	C125.979469,139.171600 125.166512,137.374313 124.045868,135.656372 
	C128.807953,135.242538 133.614029,135.023636 138.412033,135.139267 
	C145.217575,135.303284 151.572067,133.992416 157.653030,130.100906 
z"/>
<path fill="#F2E8FC" opacity="1.000000" stroke="none" 
	d="
M166.631622,167.550507 
	C165.832718,170.078201 165.001694,172.183151 163.782135,174.784027 
	C159.488098,177.203888 155.731308,180.289627 151.646439,180.812546 
	C142.852219,181.938278 133.889221,181.745483 124.995308,182.092316 
	C123.854126,181.950150 122.712952,181.807983 120.986740,181.592926 
	C120.986740,175.396484 120.986740,169.163254 120.918732,162.465820 
	C120.907578,158.435135 121.221054,154.848831 120.948006,151.307770 
	C120.683167,147.873276 122.259216,147.030807 125.594101,147.194763 
	C132.341339,147.177216 138.683044,147.267166 145.483643,147.277618 
	C149.144531,147.874695 152.432449,148.283768 155.532150,149.279022 
	C164.155777,152.048004 167.066574,156.908951 166.631622,167.550507 
z"/>
<path fill="#6910DB" opacity="1.000000" stroke="none" 
	d="
M125.029495,182.455994 
	C133.889221,181.745483 142.852219,181.938278 151.646439,180.812546 
	C155.731308,180.289627 159.488098,177.203888 163.689499,175.113312 
	C163.630966,181.299927 159.825287,185.077911 154.144745,186.599152 
	C146.627441,188.612259 138.850510,190.181427 131.169891,187.630539 
	C128.857025,186.862381 127.084000,184.468704 125.029495,182.455994 
z"/>
</svg>