<svg version="1.1" id="Layer_1" xmlns="http://www.w3.org/2000/svg" xmlns:xlink="http://www.w3.org/1999/xlink" x="0px" y="0px"
	 width="100%" viewBox="0 0 874 989" enable-background="new 0 0 874 989" xml:space="preserve">
<path fill="#FFFFFF" opacity="1.000000" stroke="none" 
	d="
M0.999995,744.000000 
	C1.000000,578.643311 1.000000,413.286682 1.370770,247.463272 
	C3.386211,246.007233 5.001788,244.965332 6.680226,244.037109 
	C18.344305,237.586563 30.064919,231.236969 41.684067,224.706741 
	C58.632023,215.181595 75.500992,205.516022 92.420715,195.940491 
	C106.272522,188.101227 120.171425,180.345016 134.009262,172.481262 
	C150.637848,163.031616 167.197159,153.459946 183.836685,144.029739 
	C197.114456,136.504745 210.503082,129.175323 223.778748,121.646660 
	C243.354233,110.545364 262.835846,99.278320 282.427490,88.205856 
	C298.789673,78.958549 315.305878,69.983505 331.656738,60.716522 
	C350.678772,49.935650 369.550659,38.889874 388.571960,28.107660 
	C402.544189,20.187521 416.674347,12.546225 430.663879,4.656156 
	C432.029022,3.886210 432.899780,2.239652 434.000000,1.000000 
	C436.370697,1.000000 438.741364,1.000000 441.267242,1.301175 
	C444.551910,3.519479 447.635162,5.517326 450.818420,7.340551 
	C470.342712,18.523314 489.852417,29.732384 509.440521,40.802597 
	C525.799744,50.047993 542.312866,59.021370 558.660950,68.286232 
	C577.679688,79.064659 596.548462,90.107780 615.566650,100.887199 
	C629.536804,108.805412 643.703247,116.377213 657.673279,124.295639 
	C676.691284,135.075302 695.560974,146.116669 714.579041,156.896271 
	C728.549133,164.814590 742.698547,172.415955 756.690186,180.296799 
	C776.007080,191.177200 795.261841,202.168213 814.521667,213.149658 
	C826.390076,219.916748 838.172241,226.836212 850.080566,233.531799 
	C858.309692,238.158722 866.688232,242.520004 875.000000,247.000000 
	C875.000000,412.356659 875.000000,577.713318 874.623474,743.536743 
	C855.749939,754.342957 837.213318,764.612122 818.766724,775.040649 
	C798.897583,786.273376 779.145020,797.712280 759.283325,808.958435 
	C733.843811,823.362854 708.333130,837.641418 682.877380,852.017151 
	C657.554138,866.318237 632.274597,880.696716 606.950867,894.996948 
	C578.554565,911.032288 550.127686,927.013550 521.718628,943.026489 
	C497.501617,956.676697 473.269989,970.301392 449.104980,984.043152 
	C446.210236,985.689209 443.692474,987.998230 441.000000,990.000000 
	C439.285553,990.000000 437.571075,990.000000 435.718262,989.693970 
	C434.400848,988.594177 433.270386,987.713806 432.035034,987.020203 
	C421.110046,980.885742 410.145721,974.821106 399.232819,968.665222 
	C379.368439,957.459778 359.532898,946.203064 339.682159,934.973328 
	C326.535889,927.536377 313.381348,920.114014 300.235352,912.676575 
	C280.384857,901.445923 260.540588,890.204346 240.689743,878.974304 
	C227.543655,871.537354 214.386353,864.120239 201.242188,856.679871 
	C183.768784,846.788879 166.307297,836.876892 148.832962,826.987488 
	C135.548004,819.469055 122.233284,812.003052 108.963882,804.457214 
	C92.344429,795.006470 75.767380,785.481140 59.153717,776.020081 
	C47.151787,769.185303 35.165066,762.321594 23.084595,755.627808 
	C15.809183,751.596436 8.367136,747.865845 0.999995,744.000000 
M313.051147,411.534210 
	C320.839539,415.937897 328.659668,420.286591 336.410889,424.754791 
	C370.011139,444.123901 403.591278,463.527954 437.251617,482.961365 
	C507.909058,442.178955 578.528320,401.418640 649.695984,360.341766 
	C648.033630,359.304871 647.099915,358.655151 646.107422,358.113220 
	C617.284729,342.375092 588.411316,326.729034 559.639343,310.898834 
	C520.698303,289.473633 481.798462,267.972504 442.989227,246.309906 
	C438.850830,243.999924 435.487000,243.903839 431.489838,246.141235 
	C410.214752,258.049866 388.922729,269.929901 367.549133,281.660583 
	C325.233124,304.885284 282.850586,327.988861 240.522125,351.190979 
	C235.351227,354.025360 230.343414,357.157196 224.902283,360.361877 
	C254.462830,377.444458 283.500275,394.224731 313.051147,411.534210 
M422.095337,600.500000 
	C422.095276,571.511169 422.082703,542.522339 422.116760,513.533508 
	C422.119751,510.968445 422.036163,508.972198 419.240662,507.381653 
	C386.215485,488.591736 353.248932,469.697876 320.342072,450.701141 
	C285.335266,430.492126 250.410980,410.140137 215.440201,389.868652 
	C213.983749,389.024414 212.421158,388.363281 210.659622,387.494354 
	C210.460876,388.786469 210.321609,389.269379 210.321503,389.752289 
	C210.305573,464.556946 210.276215,539.361694 210.437073,614.165955 
	C210.440857,615.921631 212.175797,618.399109 213.795624,619.313721 
	C230.103760,628.522278 246.574005,637.443054 262.965088,646.505432 
	C287.789612,660.230408 312.568481,674.037903 337.401947,687.746643 
	C361.039825,700.795288 384.710083,713.785522 408.397614,726.743835 
	C412.687134,729.090454 417.128815,731.158936 422.095367,733.654968 
	C422.095367,689.069702 422.095367,645.284851 422.095337,600.500000 
M636.376160,632.908386 
	C644.379944,628.517456 652.335938,624.035767 660.414612,619.787231 
	C663.047913,618.402466 664.208862,616.857178 664.204407,613.680054 
	C664.100891,539.707703 664.126709,465.735046 664.108337,391.762482 
	C664.107971,390.232666 663.867493,388.702911 663.710022,386.827087 
	C659.945618,389.152435 656.914612,391.133514 653.783936,392.941925 
	C620.059509,412.422363 586.315430,431.868805 552.584656,451.338257 
	C520.526062,469.842529 488.508636,488.418610 456.374969,506.791473 
	C453.124451,508.649933 452.252258,510.725311 452.257385,514.278564 
	C452.359894,585.418640 452.333862,656.559021 452.333832,727.699280 
	C452.333832,729.453796 452.333862,731.208252 452.333862,733.750732 
	C454.923004,732.478638 456.695557,731.693787 458.388153,730.763489 
	C495.007172,710.635315 531.617676,690.491638 568.228882,670.349365 
	C590.721558,657.974670 613.212646,645.597290 636.376160,632.908386 
M764.502625,329.000488 
	C742.469482,341.742615 720.417480,354.452576 698.444397,367.297516 
	C696.942810,368.175293 695.329163,369.915863 694.992371,371.513336 
	C694.280579,374.890106 694.177490,378.437714 694.175842,381.915375 
	C694.137329,461.709595 694.141907,541.503845 694.167969,621.298035 
	C694.168701,623.445618 694.715027,625.602600 694.622131,627.738464 
	C694.474792,631.126770 696.395935,632.574158 699.076965,634.109558 
	C728.670105,651.058167 758.185730,668.142212 787.722351,685.189697 
	C798.471313,691.393555 809.220215,697.597839 820.496826,704.106506 
	C820.496826,568.083008 820.496826,432.820557 820.496826,296.749908 
	C801.627380,307.599426 783.369995,318.097015 764.502625,329.000488 
M180.035309,596.500000 
	C180.035294,522.694702 180.002167,448.889343 180.123108,375.084259 
	C180.129868,370.953613 179.073395,368.648010 175.281006,366.490570 
	C143.466949,348.392273 111.821327,329.998016 80.116982,311.706757 
	C71.676750,306.837311 63.208904,302.015717 54.331642,296.930359 
	C54.331642,432.938873 54.331642,568.073914 54.331642,703.947632 
	C63.928787,698.419189 72.978989,693.219666 82.016098,687.997498 
	C113.419189,669.850647 144.793396,651.653442 176.259338,633.616333 
	C179.104065,631.985596 180.193314,630.271362 180.117126,626.986938 
	C179.889252,617.162598 180.035309,607.329590 180.035309,596.500000 
M749.333130,302.843689 
	C767.824707,292.147675 786.316223,281.451691 805.710876,270.233307 
	C687.725159,203.518036 570.654968,137.320480 453.124725,70.862770 
	C452.737671,74.843254 452.173431,77.967346 452.169312,81.092178 
	C452.111389,124.910324 452.164490,168.728638 452.059937,212.546616 
	C452.052094,215.834930 453.123291,217.551880 456.022034,219.127136 
	C483.509979,234.064575 510.915680,249.153641 538.322571,264.239899 
	C583.513428,289.115479 628.726440,313.951416 673.813538,339.013824 
	C678.770569,341.769287 682.540161,341.746399 687.424255,338.829346 
	C707.706299,326.715729 728.233521,315.012665 749.333130,302.843689 
M172.947922,211.458542 
	C138.427383,230.947617 103.906837,250.436676 68.809807,270.251190 
	C109.336754,293.618652 148.981964,316.467926 188.610352,339.346375 
	C191.649490,341.100952 194.154190,342.742859 198.119934,340.512329 
	C221.330765,327.457397 244.732956,314.742767 268.068542,301.909546 
	C317.802124,274.559052 367.515472,247.171494 417.307617,219.927994 
	C420.847137,217.991379 422.153442,215.813354 422.140045,211.745789 
	C421.991180,166.583572 422.048737,121.420692 422.036102,76.257996 
	C422.035675,74.670197 421.885529,73.082443 421.769409,70.787720 
	C407.864288,78.586693 394.540710,86.007660 381.265808,93.514694 
	C341.572784,115.961327 301.897491,138.439194 262.217896,160.909531 
	C232.675674,177.639175 203.137589,194.376114 172.947922,211.458542 
M728.508545,685.990295 
	C709.040222,674.782959 689.601440,663.523193 670.045410,652.471008 
	C668.534302,651.616943 665.859558,651.522217 664.304504,652.273193 
	C658.016357,655.309753 651.938232,658.785522 645.812500,662.153442 
	C602.791260,685.805542 559.777771,709.471558 516.761230,733.132141 
	C496.491852,744.281067 476.197266,755.384827 456.002533,766.667297 
	C454.568237,767.468506 453.139679,769.492859 452.954346,771.092773 
	C452.363220,776.196167 452.166748,781.367432 452.160339,786.512939 
	C452.106689,829.502930 452.126312,872.492920 452.145294,915.482971 
	C452.145905,916.861877 452.376984,918.240601 452.555267,920.229248 
	C567.462708,855.248718 681.690430,790.652649 796.960083,725.467285 
	C773.701721,712.073975 751.408936,699.236694 728.508545,685.990295 
M204.085342,652.468994 
	C162.179550,676.675354 120.273773,700.881714 77.665169,725.494019 
	C192.624634,790.497803 306.947693,855.141724 421.686371,920.020691 
	C421.877075,918.587646 422.032501,917.964355 422.032654,917.341064 
	C422.044769,868.847656 422.075226,820.354065 421.915649,771.861206 
	C421.910217,770.206970 420.385895,767.848267 418.898773,767.014648 
	C396.685913,754.564087 374.361908,742.311646 352.060120,730.019836 
	C326.988983,716.201538 301.923279,702.373352 276.837524,688.581665 
	C254.959442,676.553406 233.085114,664.517395 211.109695,652.669250 
	C209.387680,651.740784 206.884140,652.261780 204.085342,652.468994 
z"/>
<path fill="#000000" opacity="1.000000" stroke="none" 
	d="
M441.468658,990.000000 
	C443.692474,987.998230 446.210236,985.689209 449.104980,984.043152 
	C473.269989,970.301392 497.501617,956.676697 521.718628,943.026489 
	C550.127686,927.013550 578.554565,911.032288 606.950867,894.996948 
	C632.274597,880.696716 657.554138,866.318237 682.877380,852.017151 
	C708.333130,837.641418 733.843811,823.362854 759.283325,808.958435 
	C779.145020,797.712280 798.897583,786.273376 818.766724,775.040649 
	C837.213318,764.612122 855.749939,754.342957 874.623474,744.001831 
	C875.000000,825.947205 875.000000,907.894470 875.000000,990.000000 
	C730.645813,990.000000 586.291565,990.000000 441.468658,990.000000 
z"/>
<path fill="#000000" opacity="1.000000" stroke="none" 
	d="
M0.999995,744.468628 
	C8.367136,747.865845 15.809183,751.596436 23.084595,755.627808 
	C35.165066,762.321594 47.151787,769.185303 59.153717,776.020081 
	C75.767380,785.481140 92.344429,795.006470 108.963882,804.457214 
	C122.233284,812.003052 135.548004,819.469055 148.832962,826.987488 
	C166.307297,836.876892 183.768784,846.788879 201.242188,856.679871 
	C214.386353,864.120239 227.543655,871.537354 240.689743,878.974304 
	C260.540588,890.204346 280.384857,901.445923 300.235352,912.676575 
	C313.381348,920.114014 326.535889,927.536377 339.682159,934.973328 
	C359.532898,946.203064 379.368439,957.459778 399.232819,968.665222 
	C410.145721,974.821106 421.110046,980.885742 432.035034,987.020203 
	C433.270386,987.713806 434.400848,988.594177 435.289978,989.693970 
	C290.426422,990.000000 145.852844,990.000000 1.000000,990.000000 
	C1.000000,908.312622 1.000000,826.625000 0.999995,744.468628 
z"/>
<path fill="#000000" opacity="1.000000" stroke="none" 
	d="
M875.000000,246.531342 
	C866.688232,242.520004 858.309692,238.158722 850.080566,233.531799 
	C838.172241,226.836212 826.390076,219.916748 814.521667,213.149658 
	C795.261841,202.168213 776.007080,191.177200 756.690186,180.296799 
	C742.698547,172.415955 728.549133,164.814590 714.579041,156.896271 
	C695.560974,146.116669 676.691284,135.075302 657.673279,124.295639 
	C643.703247,116.377213 629.536804,108.805412 615.566650,100.887199 
	C596.548462,90.107780 577.679688,79.064659 558.660950,68.286232 
	C542.312866,59.021370 525.799744,50.047993 509.440521,40.802597 
	C489.852417,29.732384 470.342712,18.523314 450.818420,7.340551 
	C447.635162,5.517326 444.551910,3.519479 441.711212,1.301175 
	C586.240295,1.000000 730.480591,1.000000 875.000000,1.000000 
	C875.000000,82.687347 875.000000,164.375015 875.000000,246.531342 
z"/>
<path fill="#000000" opacity="1.000000" stroke="none" 
	d="
M433.531342,1.000000 
	C432.899780,2.239652 432.029022,3.886210 430.663879,4.656156 
	C416.674347,12.546225 402.544189,20.187521 388.571960,28.107660 
	C369.550659,38.889874 350.678772,49.935650 331.656738,60.716522 
	C315.305878,69.983505 298.789673,78.958549 282.427490,88.205856 
	C262.835846,99.278320 243.354233,110.545364 223.778748,121.646660 
	C210.503082,129.175323 197.114456,136.504745 183.836685,144.029739 
	C167.197159,153.459946 150.637848,163.031616 134.009262,172.481262 
	C120.171425,180.345016 106.272522,188.101227 92.420715,195.940491 
	C75.500992,205.516022 58.632023,215.181595 41.684067,224.706741 
	C30.064919,231.236969 18.344305,237.586563 6.680226,244.037109 
	C5.001788,244.965332 3.386211,246.007233 1.370770,246.998260 
	C1.000000,165.052856 1.000000,83.105721 1.000000,1.000000 
	C145.020859,1.000000 289.041779,1.000000 433.531342,1.000000 
z"/>
<path fill="#1C78C0" opacity="1.000000" stroke="none" 
	d="
M312.794434,411.269623 
	C283.500275,394.224731 254.462830,377.444458 224.902283,360.361877 
	C230.343414,357.157196 235.351227,354.025360 240.522125,351.190979 
	C282.850586,327.988861 325.233124,304.885284 367.549133,281.660583 
	C388.922729,269.929901 410.214752,258.049866 431.489838,246.141235 
	C435.487000,243.903839 438.850830,243.999924 442.989227,246.309906 
	C481.798462,267.972504 520.698303,289.473633 559.639343,310.898834 
	C588.411316,326.729034 617.284729,342.375092 646.107422,358.113220 
	C647.099915,358.655151 648.033630,359.304871 649.695984,360.341766 
	C578.528320,401.418640 507.909058,442.178955 437.251617,482.961365 
	C403.591278,463.527954 370.011139,444.123901 336.410889,424.754791 
	C328.659668,420.286591 320.839539,415.937897 312.794434,411.269623 
z"/>
<path fill="#1C78C0" opacity="1.000000" stroke="none" 
	d="
M422.095337,601.000000 
	C422.095367,645.284851 422.095367,689.069702 422.095367,733.654968 
	C417.128815,731.158936 412.687134,729.090454 408.397614,726.743835 
	C384.710083,713.785522 361.039825,700.795288 337.401947,687.746643 
	C312.568481,674.037903 287.789612,660.230408 262.965088,646.505432 
	C246.574005,637.443054 230.103760,628.522278 213.795624,619.313721 
	C212.175797,618.399109 210.440857,615.921631 210.437073,614.165955 
	C210.276215,539.361694 210.305573,464.556946 210.321503,389.752289 
	C210.321609,389.269379 210.460876,388.786469 210.659622,387.494354 
	C212.421158,388.363281 213.983749,389.024414 215.440201,389.868652 
	C250.410980,410.140137 285.335266,430.492126 320.342072,450.701141 
	C353.248932,469.697876 386.215485,488.591736 419.240662,507.381653 
	C422.036163,508.972198 422.119751,510.968445 422.116760,513.533508 
	C422.082703,542.522339 422.095276,571.511169 422.095337,601.000000 
z"/>
<path fill="#1C78C0" opacity="1.000000" stroke="none" 
	d="
M636.040283,633.064758 
	C613.212646,645.597290 590.721558,657.974670 568.228882,670.349365 
	C531.617676,690.491638 495.007172,710.635315 458.388153,730.763489 
	C456.695557,731.693787 454.923004,732.478638 452.333862,733.750732 
	C452.333862,731.208252 452.333832,729.453796 452.333832,727.699280 
	C452.333862,656.559021 452.359894,585.418640 452.257385,514.278564 
	C452.252258,510.725311 453.124451,508.649933 456.374969,506.791473 
	C488.508636,488.418610 520.526062,469.842529 552.584656,451.338257 
	C586.315430,431.868805 620.059509,412.422363 653.783936,392.941925 
	C656.914612,391.133514 659.945618,389.152435 663.710022,386.827087 
	C663.867493,388.702911 664.107971,390.232666 664.108337,391.762482 
	C664.126709,465.735046 664.100891,539.707703 664.204407,613.680054 
	C664.208862,616.857178 663.047913,618.402466 660.414612,619.787231 
	C652.335938,624.035767 644.379944,628.517456 636.040283,633.064758 
z"/>
<path fill="#8ED5FA" opacity="1.000000" stroke="none" 
	d="
M764.807617,328.797546 
	C783.369995,318.097015 801.627380,307.599426 820.496826,296.749908 
	C820.496826,432.820557 820.496826,568.083008 820.496826,704.106506 
	C809.220215,697.597839 798.471313,691.393555 787.722351,685.189697 
	C758.185730,668.142212 728.670105,651.058167 699.076965,634.109558 
	C696.395935,632.574158 694.474792,631.126770 694.622131,627.738464 
	C694.715027,625.602600 694.168701,623.445618 694.167969,621.298035 
	C694.141907,541.503845 694.137329,461.709595 694.175842,381.915375 
	C694.177490,378.437714 694.280579,374.890106 694.992371,371.513336 
	C695.329163,369.915863 696.942810,368.175293 698.444397,367.297516 
	C720.417480,354.452576 742.469482,341.742615 764.807617,328.797546 
z"/>
<path fill="#8ED5FA" opacity="1.000000" stroke="none" 
	d="
M180.035339,597.000000 
	C180.035309,607.329590 179.889252,617.162598 180.117126,626.986938 
	C180.193314,630.271362 179.104065,631.985596 176.259338,633.616333 
	C144.793396,651.653442 113.419189,669.850647 82.016098,687.997498 
	C72.978989,693.219666 63.928787,698.419189 54.331642,703.947632 
	C54.331642,568.073914 54.331642,432.938873 54.331642,296.930359 
	C63.208904,302.015717 71.676750,306.837311 80.116982,311.706757 
	C111.821327,329.998016 143.466949,348.392273 175.281006,366.490570 
	C179.073395,368.648010 180.129868,370.953613 180.123108,375.084259 
	C180.002167,448.889343 180.035294,522.694702 180.035339,597.000000 
z"/>
<path fill="#8ED5FA" opacity="1.000000" stroke="none" 
	d="
M749.001953,303.001282 
	C728.233521,315.012665 707.706299,326.715729 687.424255,338.829346 
	C682.540161,341.746399 678.770569,341.769287 673.813538,339.013824 
	C628.726440,313.951416 583.513428,289.115479 538.322571,264.239899 
	C510.915680,249.153641 483.509979,234.064575 456.022034,219.127136 
	C453.123291,217.551880 452.052094,215.834930 452.059937,212.546616 
	C452.164490,168.728638 452.111389,124.910324 452.169312,81.092178 
	C452.173431,77.967346 452.737671,74.843254 453.124725,70.862770 
	C570.654968,137.320480 687.725159,203.518036 805.710876,270.233307 
	C786.316223,281.451691 767.824707,292.147675 749.001953,303.001282 
z"/>
<path fill="#8ED5FA" opacity="1.000000" stroke="none" 
	d="
M173.272797,211.284164 
	C203.137589,194.376114 232.675674,177.639175 262.217896,160.909531 
	C301.897491,138.439194 341.572784,115.961327 381.265808,93.514694 
	C394.540710,86.007660 407.864288,78.586693 421.769409,70.787720 
	C421.885529,73.082443 422.035675,74.670197 422.036102,76.257996 
	C422.048737,121.420692 421.991180,166.583572 422.140045,211.745789 
	C422.153442,215.813354 420.847137,217.991379 417.307617,219.927994 
	C367.515472,247.171494 317.802124,274.559052 268.068542,301.909546 
	C244.732956,314.742767 221.330765,327.457397 198.119934,340.512329 
	C194.154190,342.742859 191.649490,341.100952 188.610352,339.346375 
	C148.981964,316.467926 109.336754,293.618652 68.809807,270.251190 
	C103.906837,250.436676 138.427383,230.947617 173.272797,211.284164 
z"/>
<path fill="#8ED5FA" opacity="1.000000" stroke="none" 
	d="
M728.812378,686.194824 
	C751.408936,699.236694 773.701721,712.073975 796.960083,725.467285 
	C681.690430,790.652649 567.462708,855.248718 452.555267,920.229248 
	C452.376984,918.240601 452.145905,916.861877 452.145294,915.482971 
	C452.126312,872.492920 452.106689,829.502930 452.160339,786.512939 
	C452.166748,781.367432 452.363220,776.196167 452.954346,771.092773 
	C453.139679,769.492859 454.568237,767.468506 456.002533,766.667297 
	C476.197266,755.384827 496.491852,744.281067 516.761230,733.132141 
	C559.777771,709.471558 602.791260,685.805542 645.812500,662.153442 
	C651.938232,658.785522 658.016357,655.309753 664.304504,652.273193 
	C665.859558,651.522217 668.534302,651.616943 670.045410,652.471008 
	C689.601440,663.523193 709.040222,674.782959 728.812378,686.194824 
z"/>
<path fill="#8ED5FA" opacity="1.000000" stroke="none" 
	d="
M204.414581,652.289062 
	C206.884140,652.261780 209.387680,651.740784 211.109695,652.669250 
	C233.085114,664.517395 254.959442,676.553406 276.837524,688.581665 
	C301.923279,702.373352 326.988983,716.201538 352.060120,730.019836 
	C374.361908,742.311646 396.685913,754.564087 418.898773,767.014648 
	C420.385895,767.848267 421.910217,770.206970 421.915649,771.861206 
	C422.075226,820.354065 422.044769,868.847656 422.032654,917.341064 
	C422.032501,917.964355 421.877075,918.587646 421.686371,920.020691 
	C306.947693,855.141724 192.624634,790.497803 77.665169,725.494019 
	C120.273773,700.881714 162.179550,676.675354 204.414581,652.289062 
z"/>
</svg>